<svg width="0" height="0" class="hidden">
    <symbol xmlns="http://www.w3.org/2000/svg" viewBox="0 0 16 14" id="twitter">
        <path
            d="M14.3438 3.75C14.3646 3.83333 14.375 3.96875 14.375 4.15625C14.375 5.26042 14.1667 6.36458 13.75 7.46875C13.3333 8.55208 12.7396 9.55208 11.9688 10.4688C11.2188 11.3646 10.2396 12.0938 9.03125 12.6562C7.82292 13.2188 6.48958 13.5 5.03125 13.5C3.19792 13.5 1.52083 13.0104 0 12.0312C0.229167 12.0521 0.489583 12.0625 0.78125 12.0625C2.30208 12.0625 3.66667 11.5938 4.875 10.6562C4.14583 10.6562 3.5 10.4479 2.9375 10.0312C2.39583 9.59375 2.02083 9.05208 1.8125 8.40625C2.02083 8.42708 2.21875 8.4375 2.40625 8.4375C2.69792 8.4375 2.98958 8.40625 3.28125 8.34375C2.78125 8.23958 2.33333 8.03125 1.9375 7.71875C1.54167 7.40625 1.22917 7.03125 1 6.59375C0.770833 6.13542 0.65625 5.64583 0.65625 5.125V5.0625C1.11458 5.33333 1.60417 5.47917 2.125 5.5C1.14583 4.83333 0.65625 3.91667 0.65625 2.75C0.65625 2.16667 0.8125 1.61458 1.125 1.09375C1.9375 2.11458 2.92708 2.92708 4.09375 3.53125C5.28125 4.13542 6.54167 4.46875 7.875 4.53125C7.83333 4.28125 7.8125 4.03125 7.8125 3.78125C7.8125 2.88542 8.125 2.11458 8.75 1.46875C9.39583 0.822917 10.1667 0.5 11.0625 0.5C12.0208 0.5 12.8229 0.84375 13.4688 1.53125C14.2188 1.38542 14.9167 1.125 15.5625 0.75C15.3125 1.52083 14.8333 2.125 14.125 2.5625C14.75 2.47917 15.375 2.30208 16 2.03125C15.5417 2.69792 14.9896 3.27083 14.3438 3.75Z"></path>
    </symbol>
    <symbol xmlns="http://www.w3.org/2000/svg" viewBox="0 0 15 14" id="instagram">
        <path
            d="M4.46875 4.46875C5.17708 3.76042 6.03125 3.40625 7.03125 3.40625C8.03125 3.40625 8.875 3.76042 9.5625 4.46875C10.2708 5.15625 10.625 6 10.625 7C10.625 8 10.2708 8.85417 9.5625 9.5625C8.875 10.25 8.03125 10.5938 7.03125 10.5938C6.03125 10.5938 5.17708 10.25 4.46875 9.5625C3.78125 8.85417 3.4375 8 3.4375 7C3.4375 6 3.78125 5.15625 4.46875 4.46875ZM5.375 8.65625C5.83333 9.11458 6.38542 9.34375 7.03125 9.34375C7.67708 9.34375 8.22917 9.11458 8.6875 8.65625C9.14583 8.19792 9.375 7.64583 9.375 7C9.375 6.35417 9.14583 5.80208 8.6875 5.34375C8.22917 4.88542 7.67708 4.65625 7.03125 4.65625C6.38542 4.65625 5.83333 4.88542 5.375 5.34375C4.91667 5.80208 4.6875 6.35417 4.6875 7C4.6875 7.64583 4.91667 8.19792 5.375 8.65625ZM11.3438 2.6875C11.5104 2.83333 11.5938 3.02083 11.5938 3.25C11.5938 3.47917 11.5104 3.67708 11.3438 3.84375C11.1979 4.01042 11.0104 4.09375 10.7812 4.09375C10.5521 4.09375 10.3542 4.01042 10.1875 3.84375C10.0208 3.67708 9.9375 3.47917 9.9375 3.25C9.9375 3.02083 10.0208 2.83333 10.1875 2.6875C10.3542 2.52083 10.5521 2.4375 10.7812 2.4375C11.0104 2.4375 11.1979 2.52083 11.3438 2.6875ZM14 4.125C14.0208 4.6875 14.0312 5.64583 14.0312 7C14.0312 8.35417 14.0208 9.3125 14 9.875C13.9375 11.1458 13.5521 12.1354 12.8438 12.8438C12.1562 13.5312 11.1771 13.8958 9.90625 13.9375C9.34375 13.9792 8.38542 14 7.03125 14C5.67708 14 4.71875 13.9792 4.15625 13.9375C2.88542 13.875 1.90625 13.5 1.21875 12.8125C0.947917 12.5625 0.729167 12.2708 0.5625 11.9375C0.395833 11.6042 0.270833 11.2812 0.1875 10.9688C0.125 10.6562 0.09375 10.2917 0.09375 9.875C0.0520833 9.3125 0.03125 8.35417 0.03125 7C0.03125 5.64583 0.0520833 4.67708 0.09375 4.09375C0.15625 2.84375 0.53125 1.875 1.21875 1.1875C1.90625 0.479167 2.88542 0.09375 4.15625 0.03125C4.71875 0.0104167 5.67708 0 7.03125 0C8.38542 0 9.34375 0.0104167 9.90625 0.03125C11.1771 0.09375 12.1562 0.479167 12.8438 1.1875C13.5521 1.875 13.9375 2.85417 14 4.125ZM12.5 11.125C12.5625 10.9583 12.6146 10.75 12.6562 10.5C12.6979 10.2292 12.7292 9.91667 12.75 9.5625C12.7708 9.1875 12.7812 8.88542 12.7812 8.65625C12.7812 8.42708 12.7812 8.10417 12.7812 7.6875C12.7812 7.27083 12.7812 7.04167 12.7812 7C12.7812 6.9375 12.7812 6.70833 12.7812 6.3125C12.7812 5.89583 12.7812 5.57292 12.7812 5.34375C12.7812 5.11458 12.7708 4.82292 12.75 4.46875C12.7292 4.09375 12.6979 3.78125 12.6562 3.53125C12.6146 3.26042 12.5625 3.04167 12.5 2.875C12.25 2.22917 11.8021 1.78125 11.1562 1.53125C10.9896 1.46875 10.7708 1.41667 10.5 1.375C10.25 1.33333 9.9375 1.30208 9.5625 1.28125C9.20833 1.26042 8.91667 1.25 8.6875 1.25C8.47917 1.25 8.15625 1.25 7.71875 1.25C7.30208 1.25 7.07292 1.25 7.03125 1.25C6.98958 1.25 6.76042 1.25 6.34375 1.25C5.92708 1.25 5.60417 1.25 5.375 1.25C5.14583 1.25 4.84375 1.26042 4.46875 1.28125C4.11458 1.30208 3.80208 1.33333 3.53125 1.375C3.28125 1.41667 3.07292 1.46875 2.90625 1.53125C2.26042 1.78125 1.8125 2.22917 1.5625 2.875C1.5 3.04167 1.44792 3.26042 1.40625 3.53125C1.36458 3.78125 1.33333 4.09375 1.3125 4.46875C1.29167 4.82292 1.28125 5.11458 1.28125 5.34375C1.28125 5.55208 1.28125 5.875 1.28125 6.3125C1.28125 6.72917 1.28125 6.95833 1.28125 7C1.28125 7.08333 1.28125 7.28125 1.28125 7.59375C1.28125 7.88542 1.28125 8.13542 1.28125 8.34375C1.28125 8.53125 1.28125 8.78125 1.28125 9.09375C1.30208 9.40625 1.32292 9.67708 1.34375 9.90625C1.36458 10.1146 1.39583 10.3333 1.4375 10.5625C1.47917 10.7917 1.52083 10.9792 1.5625 11.125C1.83333 11.7708 2.28125 12.2188 2.90625 12.4688C3.07292 12.5312 3.28125 12.5833 3.53125 12.625C3.80208 12.6667 4.11458 12.6979 4.46875 12.7188C4.84375 12.7396 5.13542 12.75 5.34375 12.75C5.57292 12.75 5.89583 12.75 6.3125 12.75C6.75 12.75 6.98958 12.75 7.03125 12.75C7.09375 12.75 7.32292 12.75 7.71875 12.75C8.13542 12.75 8.45833 12.75 8.6875 12.75C8.91667 12.75 9.20833 12.7396 9.5625 12.7188C9.9375 12.6979 10.25 12.6667 10.5 12.625C10.7708 12.5833 10.9896 12.5312 11.1562 12.4688C11.8021 12.1979 12.25 11.75 12.5 11.125Z"></path>
    </symbol>
    <symbol xmlns="http://www.w3.org/2000/svg" viewBox="0 0 10 16" id="facebook">
        <path
            d="M8.71875 9H6.375V16H3.25V9H0.71875V6.09375H3.25V3.90625C3.25 3.07292 3.40625 2.36458 3.71875 1.78125C4.03125 1.19792 4.46875 0.760417 5.03125 0.46875C5.61458 0.15625 6.28125 0 7.03125 0C7.36458 0 7.71875 0.0208333 8.09375 0.0625C8.46875 0.0833333 8.76042 0.114583 8.96875 0.15625L9.28125 0.1875V2.65625H8.03125C7.44792 2.65625 7.02083 2.8125 6.75 3.125C6.5 3.41667 6.375 3.78125 6.375 4.21875V6.09375H9.15625L8.71875 9Z"></path>
    </symbol>
    <symbol xmlns="http://www.w3.org/2000/svg" viewBox="0 0 9 14" id="mark">
        <path
            d="M6.42857 4.5C6.42857 5.68025 5.46596 6.64286 4.28571 6.64286C3.10547 6.64286 2.14286 5.68025 2.14286 4.5C2.14286 3.31975 3.10547 2.35714 4.28571 2.35714C5.46596 2.35714 6.42857 3.31975 6.42857 4.5ZM8.57143 4.5C8.57143 2.13114 6.65458 0.214285 4.28571 0.214285C1.91685 0.214285 0 2.13114 0 4.5C0 5.0106 0.0585938 5.53795 0.276228 5.99833L3.33147 12.4771C3.49888 12.8454 3.88393 13.0714 4.28571 13.0714C4.6875 13.0714 5.07254 12.8454 5.24833 12.4771L8.2952 5.99833C8.51284 5.53795 8.57143 5.0106 8.57143 4.5Z"
        ></path>
    </symbol>
    <symbol version="1.1" xmlns="http://www.w3.org/2000/svg" viewBox="0 0 88 100" id="clock_icon">
        <path
            d="M0 0 C8.48495034 6.95937341 14.92708301 15.48736015 16.05078125 26.6875 C16.33497435 36.73896116 14.19561829 45.02854624 7.5625 52.75 C0.17264102 60.28475818 -8.38179944 65.30081203 -19.125 65.6875 C-30.34446109 65.28742619 -39.8697256 60.44013124 -47.58203125 52.41015625 C-54.01805605 44.00104355 -55.92787135 34.6365671 -55.1875 24.3125 C-53.205263 12.87264068 -46.24819458 5.17522504 -37.1875 -1.6875 C-25.94314901 -8.19620616 -10.5591013 -7.4522888 0 0 Z M-38.64453125 13.3046875 C-43.87183834 20.10680356 -45.19026079 26.85170581 -44.1875 35.3125 C-42.90026692 41.87509007 -39.43873646 46.27701673 -34.1875 50.3125 C-27.86412431 54.35707426 -21.5886924 55.34995038 -14.1875 54.3125 C-6.84393743 52.33628651 -1.04442209 48.01981292 2.91015625 41.50390625 C5.71902434 35.21988042 6.03593414 27.60180184 4.15625 21.01171875 C1.31864378 14.71272219 -3.55508107 9.17384764 -9.9375 6.375 C-20.60649163 3.0461092 -31.09082645 5.04228271 -38.64453125 13.3046875 Z "
          transform="translate(63.1875,19.6875)"></path>
        <path
            d="M0 0 C2.5 0.125 2.5 0.125 3.5 1.125 C3.75098924 4.59708807 3.68522096 8.0824062 3.6875 11.5625 C3.69974609 12.54283203 3.71199219 13.52316406 3.72460938 14.53320312 C3.72750977 15.93795898 3.72750977 15.93795898 3.73046875 17.37109375 C3.73457764 18.23404053 3.73868652 19.0969873 3.74291992 19.98608398 C3.5 22.125 3.5 22.125 1.5 24.125 C-1.06292317 24.29663731 -3.50345857 24.35764558 -6.0625 24.3125 C-6.76052734 24.31185547 -7.45855469 24.31121094 -8.17773438 24.31054688 C-13.35968842 24.26531158 -13.35968842 24.26531158 -14.5 23.125 C-14.54080783 21.12541636 -14.54254356 19.12454746 -14.5 17.125 C-10.87 17.125 -7.24 17.125 -3.5 17.125 C-3.51160156 15.98160156 -3.52320313 14.83820312 -3.53515625 13.66015625 C-3.54453288 12.16927246 -3.55363321 10.67838691 -3.5625 9.1875 C-3.57087891 8.43275391 -3.57925781 7.67800781 -3.58789062 6.90039062 C-3.59652441 4.97505687 -3.55224333 3.04964419 -3.5 1.125 C-2.5 0.125 -2.5 0.125 0 0 Z "
            transform="translate(46.5,31.875)"></path>
    </symbol>
    <symbol version="1.1" xmlns="http://www.w3.org/2000/svg" viewBox="0 0 134 136" id="inbox_icon">
        <path
            d="M0 0 C0.69451767 -0.00817749 1.38903534 -0.01635498 2.104599 -0.02478027 C4.40720761 -0.0496296 6.70975458 -0.06614918 9.01245117 -0.08056641 C9.79872076 -0.08589008 10.58499035 -0.09121376 11.39508629 -0.09669876 C15.55700074 -0.12342866 19.71888521 -0.14280381 23.88085938 -0.15722656 C28.17858682 -0.17387223 32.47554708 -0.21864876 36.7729845 -0.26959801 C40.07843399 -0.30326323 43.38370122 -0.31480311 46.68930626 -0.32045364 C48.27336171 -0.32716846 49.85740507 -0.34239676 51.44129372 -0.36634445 C53.66071599 -0.39798576 55.87806741 -0.39803582 58.09765625 -0.390625 C59.35959305 -0.39871185 60.62152985 -0.40679871 61.92170715 -0.41513062 C66.14404394 0.35783642 67.56974203 1.91039685 70.24291992 5.19287109 C71.78515625 8.01342773 71.78515625 8.01342773 73.07495117 11.10302734 C73.80875 12.83842773 73.80875 12.83842773 74.55737305 14.60888672 C75.05172852 15.81222656 75.54608398 17.01556641 76.05541992 18.25537109 C76.77955078 19.97336914 76.77955078 19.97336914 77.51831055 21.72607422 C78.54516209 24.17575273 79.55075385 26.62808749 80.54077148 29.09228516 C81.72981741 32.02514601 83.03054732 34.88133122 84.39038086 37.73876953 C90.53766276 51.09118089 91.28654899 62.76299415 90.86791992 77.31787109 C90.84486174 79.42590838 90.82531395 81.53398708 90.80932617 83.64208984 C90.78254633 85.64083272 90.75271958 87.63953767 90.71948242 89.63818359 C90.70470856 90.57131378 90.68993469 91.50444397 90.67471313 92.46585083 C90.64904266 93.32210052 90.62337219 94.17835022 90.59692383 95.06054688 C90.57723541 95.81296661 90.557547 96.56538635 90.53726196 97.34060669 C90.24291992 99.19287109 90.24291992 99.19287109 88.24291992 101.19287109 C86.15956116 101.44734669 86.15956116 101.44734669 83.53613281 101.4535675 C82.04703903 101.46419472 82.04703903 101.46419472 80.52786255 101.47503662 C79.43480804 101.4725592 78.34175354 101.47008179 77.21557617 101.4675293 C75.49357498 101.47519569 75.49357498 101.47519569 73.73678589 101.48301697 C69.92627815 101.49696463 66.11595021 101.49595243 62.30541992 101.49365234 C59.66747978 101.49753614 57.02954026 101.50187014 54.39160156 101.50663757 C48.85667311 101.51485712 43.32179569 101.51393785 37.78686523 101.50854492 C31.3827259 101.50250121 24.97880605 101.51482419 18.57470417 101.53611499 C12.42053608 101.55582496 6.26647097 101.55890843 0.11227417 101.55537987 C-2.50969966 101.555895 -5.13167687 101.56116834 -7.75363159 101.57119179 C-11.41250764 101.58346266 -15.07086915 101.57682082 -18.72973633 101.56518555 C-19.82279083 101.57282928 -20.91584534 101.58047302 -22.04202271 101.58834839 C-23.03475189 101.58133408 -24.02748108 101.57431976 -25.05029297 101.5670929 C-25.91602432 101.56726064 -26.78175568 101.56742838 -27.67372131 101.5676012 C-28.36122971 101.44394027 -29.0487381 101.32027933 -29.75708008 101.19287109 C-31.7921632 98.14024641 -32.01346411 97.47977402 -32.06347656 94.03540039 C-32.07946396 93.19990158 -32.09545135 92.36440277 -32.11192322 91.50358582 C-32.11728592 90.60054214 -32.12264862 89.69749847 -32.12817383 88.76708984 C-32.1372023 87.82791214 -32.14623077 86.88873444 -32.15553284 85.9210968 C-32.17005519 83.92635283 -32.17892699 81.931561 -32.18261719 79.93676758 C-32.19438787 76.92947871 -32.2434441 73.92432832 -32.29418945 70.91748047 C-32.39508919 59.50530452 -31.57704703 50.66115512 -26.75708008 40.19287109 C-26.1631782 38.80350763 -25.5738215 37.41219518 -24.98828125 36.01928711 C-23.40998954 32.28991432 -21.78410743 28.58399136 -20.13598633 24.88500977 C-19.12048662 22.60433374 -18.11408743 20.31979204 -17.10864258 18.03466797 C-16.45812648 16.56503418 -15.80710363 15.09562457 -15.15551758 13.62646484 C-14.85858002 12.95248154 -14.56164246 12.27849823 -14.25570679 11.58409119 C-9.11853779 0.09310322 -9.11853779 0.09310322 0 0 Z M1.24291992 15.19287109 C-0.55373266 19.33707826 -2.35019378 23.48136834 -4.14648438 27.62573242 C-4.75645893 29.0329813 -5.36648405 30.44020827 -5.9765625 31.84741211 C-6.85796478 33.88047493 -7.73917979 35.91361884 -8.62036133 37.94677734 C-8.8892366 38.56686172 -9.15811188 39.18694611 -9.43513489 39.82582092 C-10.21018291 41.61437596 -10.98364509 43.40361793 -11.75708008 45.19287109 C-12.04167084 45.82063446 -12.3262616 46.44839783 -12.61947632 47.09518433 C-13.9103657 49.98010967 -14.75708008 51.99344717 -14.75708008 55.19287109 C-6.83708008 55.19287109 1.08291992 55.19287109 9.24291992 55.19287109 C9.90291992 57.17287109 10.56291992 59.15287109 11.24291992 61.19287109 C12.0526585 62.81991591 12.90460473 64.42692775 13.80541992 66.00537109 C14.23983398 66.77494141 14.67424805 67.54451172 15.12182617 68.33740234 C16.10932702 70.1391237 16.10932702 70.1391237 17.24291992 71.19287109 C19.09661603 71.28024755 20.95359533 71.29985262 22.80932617 71.29052734 C23.9340332 71.28730469 25.05874023 71.28408203 26.2175293 71.28076172 C27.4015332 71.27238281 28.58553711 71.26400391 29.80541992 71.25537109 C30.99329102 71.25085938 32.18116211 71.24634766 33.4050293 71.24169922 C36.35104218 71.22986784 39.29695673 71.21338396 42.24291992 71.19287109 C42.54198242 70.12166016 42.84104492 69.05044922 43.14916992 67.94677734 C44.75887103 63.39304633 46.36913937 59.25567726 50.24291992 56.19287109 C57.91991131 53.92267507 66.33970725 54.63618902 74.24291992 55.19287109 C70.17686046 44.93039654 66.07335284 34.68584252 61.80541992 24.50537109 C61.46381836 23.68641357 61.1222168 22.86745605 60.77026367 22.02368164 C59.43267203 18.34421312 59.43267203 18.34421312 57.24291992 15.19287109 C55.49363272 15.09922103 53.74055738 15.07542671 51.98876953 15.0793457 C50.30713966 15.079459 50.30713966 15.079459 48.59153748 15.07957458 C47.37176712 15.08473587 46.15199677 15.08989716 44.89526367 15.09521484 C43.03291832 15.09733727 43.03291832 15.09733727 41.13294983 15.09950256 C37.82686502 15.10416519 34.52084846 15.11315613 31.21478271 15.12420654 C27.84330842 15.13442283 24.47182709 15.13900065 21.1003418 15.14404297 C14.48118218 15.15509714 7.86205499 15.17185373 1.24291992 15.19287109 Z "
            transform="translate(36.757080078125,12.80712890625)"></path>
    </symbol>
    <symbol version="1.1" xmlns="http://www.w3.org/2000/svg" viewBox="0 0 74 86" id="tel_icon">
        <path
            d="M0 0 C1.72217177 2.28735185 3.03762593 4.32057641 4.375 6.8125 C4.74238281 7.44220703 5.10976563 8.07191406 5.48828125 8.72070312 C6.89326251 11.24701848 8.01650675 13.28005189 7.94921875 16.21484375 C6.74564688 18.47835135 5.29890185 19.99012916 3.4375 21.75 C2.47650391 22.67039062 2.47650391 22.67039062 1.49609375 23.609375 C1.00238281 24.06828125 0.50867188 24.5271875 0 25 C3.53989871 34.6107395 9.62382465 41.30546271 18 47 C18.928125 47.66 19.85625 48.32 20.8125 49 C22.89647534 50.17907858 22.89647534 50.17907858 24.93359375 49.78515625 C27.50749991 48.80716922 28.54022431 47.57471961 30.25 45.4375 C30.77078125 44.79683594 31.2915625 44.15617187 31.828125 43.49609375 C32.21484375 43.00238281 32.6015625 42.50867187 33 42 C37.2002771 42.90523213 40.57966461 44.90282094 44.25 47.0625 C44.8996875 47.43955078 45.549375 47.81660156 46.21875 48.20507812 C47.81505091 49.13234115 49.40787529 50.06558456 51 51 C50.96641682 58.70734056 50.96641682 58.70734056 48.7734375 61.640625 C43.60931973 66.03674577 38.67349947 67.59668058 32.0078125 67.4375 C21.14628108 65.85764088 11.89791882 60.41006741 4 53 C3.13503906 52.21367188 2.27007813 51.42734375 1.37890625 50.6171875 C-8.19484855 41.54132485 -16.77004887 28.85797212 -17.625 15.25 C-17.27792663 10.16584416 -15.21996762 5.90592564 -12 2 C-8.20457154 -0.80118183 -4.45405899 -1.70943243 0 0 Z "
            transform="translate(21,12)"></path>
    </symbol>
</svg>