<?xml version="1.0" encoding="UTF-8"?>
<svg version="1.1" xmlns="http://www.w3.org/2000/svg" width="74" height="86">
<path d="M0 0 C1.72217177 2.28735185 3.03762593 4.32057641 4.375 6.8125 C4.74238281 7.44220703 5.10976563 8.07191406 5.48828125 8.72070312 C6.89326251 11.24701848 8.01650675 13.28005189 7.94921875 16.21484375 C6.74564688 18.47835135 5.29890185 19.99012916 3.4375 21.75 C2.47650391 22.67039062 2.47650391 22.67039062 1.49609375 23.609375 C1.00238281 24.06828125 0.50867188 24.5271875 0 25 C3.53989871 34.6107395 9.62382465 41.30546271 18 47 C18.928125 47.66 19.85625 48.32 20.8125 49 C22.89647534 50.17907858 22.89647534 50.17907858 24.93359375 49.78515625 C27.50749991 48.80716922 28.54022431 47.57471961 30.25 45.4375 C30.77078125 44.79683594 31.2915625 44.15617187 31.828125 43.49609375 C32.21484375 43.00238281 32.6015625 42.50867187 33 42 C37.2002771 42.90523213 40.57966461 44.90282094 44.25 47.0625 C44.8996875 47.43955078 45.549375 47.81660156 46.21875 48.20507812 C47.81505091 49.13234115 49.40787529 50.06558456 51 51 C50.96641682 58.70734056 50.96641682 58.70734056 48.7734375 61.640625 C43.60931973 66.03674577 38.67349947 67.59668058 32.0078125 67.4375 C21.14628108 65.85764088 11.89791882 60.41006741 4 53 C3.13503906 52.21367188 2.27007813 51.42734375 1.37890625 50.6171875 C-8.19484855 41.54132485 -16.77004887 28.85797212 -17.625 15.25 C-17.27792663 10.16584416 -15.21996762 5.90592564 -12 2 C-8.20457154 -0.80118183 -4.45405899 -1.70943243 0 0 Z " fill="#8260FF" transform="translate(21,12)"/>
</svg>
