<svg width="42" height="42" viewBox="0 0 42 42" fill="none" xmlns="http://www.w3.org/2000/svg">
<path d="M35.1406 1H6.85938C3.62848 1 1 3.62848 1 6.85938V35.1406C1 38.3715 3.62848 41 6.85938 41H35.1406C38.3715 41 41 38.3715 41 35.1406V6.85938C41 3.62848 38.3715 1 35.1406 1ZM38.6562 35.1406C38.6562 37.0791 37.0791 38.6562 35.1406 38.6562H6.85938C4.9209 38.6562 3.34375 37.0791 3.34375 35.1406V6.85938C3.34375 4.9209 4.9209 3.34375 6.85938 3.34375H35.1406C37.0791 3.34375 38.6562 4.9209 38.6562 6.85938V35.1406Z" fill="#070707" stroke="#070707" stroke-width="0.5"/>
<path d="M27.2415 16.1973C28.0201 16.2198 28.7631 16.3753 29.4456 16.7314L29.7347 16.8965C30.5869 17.4286 31.148 18.1766 31.5081 19.0713L31.6507 19.4639C31.9219 20.2967 32.0111 21.1562 32.012 22.0273L32.013 29.5586L32.0062 29.6982H27.7386V29.5176L27.7396 22.5918L27.7318 22.2246C27.7183 21.9187 27.6852 21.615 27.6204 21.3135L27.5775 21.1328C27.319 20.1383 26.6305 19.6683 25.8958 19.5664C25.2084 19.4712 24.4797 19.6976 24.0247 20.1152L23.9378 20.2021C23.5482 20.6157 23.2756 21.0771 23.2054 21.6299L23.1878 21.8721C23.1851 22.0273 23.1761 22.1855 23.1761 22.3418L23.1751 29.5098V29.6973H18.9173V16.5117H23.1732V18.2793L23.1819 18.2832C23.1927 18.2878 23.2055 18.293 23.2171 18.2979L23.2278 18.3027L23.2347 18.293L23.3275 18.1699C23.7029 17.6524 24.1265 17.1868 24.6644 16.8418L24.9017 16.7021C25.5401 16.3564 26.2236 16.2113 26.9349 16.1963L27.2415 16.1973Z" fill="#070707" stroke="#070707" stroke-width="0.0306072"/>
<path d="M16.2662 16.5078V29.7051H12.0309V16.5078H16.2662Z" fill="#070707" stroke="#070707" stroke-width="0.0306072"/>
<path d="M14.3309 9.92969C14.9986 9.9288 15.5677 10.1637 15.9706 10.5654C16.3735 10.9673 16.6109 11.5368 16.6132 12.2061L16.6034 12.4492C16.5536 13.0062 16.3261 13.4819 15.9686 13.8311C15.56 14.23 14.9805 14.4645 14.2997 14.4648L14.0546 14.4541C12.8568 14.3464 12.0258 13.4421 12.0233 12.2012L12.0341 11.957C12.1352 10.8415 12.9449 10.0434 14.0819 9.94043L14.3309 9.92969Z" fill="#070707" stroke="#070707" stroke-width="0.0306072"/>
</svg>
